# xmcd CD database file
#
# Track frame offsets:
#	150
#	17825
#	34965
#	47827
#	68345
#	82380
#	99332
#	114485
#	130017
#	142265
#	159867
#	177530
#	188817
#	203105
#
# Disc length: 2913 seconds
#
# Revision: 2
# Processed by: cddbd v1.5.2PL0 Copyright (c) Steve Scherf et al.
# Submitted via: CDex 1.51
#
DISCID=c20b5f0e
DTITLE=Patrick Normand et Renée Martel - Country
DYEAR=1900
DGENRE=
TTITLE0=Mille après mille
TTITLE1=Lady
TTITLE2=Nous on aime la musique country
TTITLE3=Mon vieux copain
TTITLE4=Stewball
TTITLE5=Lucille
TTITLE6=C'est mon histoire
TTITLE7=Six heures moins quart
TTITLE8=De villes en villages
TTITLE9=Vivre
TTITLE10=Quand le soleil dit bonjour aux montagnes
TTITLE11=Madame Rose
TTITLE12=Je t'appartiens
TTITLE13=Nous
EXTD=
EXTT0=
EXTT1=
EXTT2=
EXTT3=
EXTT4=
EXTT5=
EXTT6=
EXTT7=
EXTT8=
EXTT9=
EXTT10=
EXTT11=
EXTT12=
EXTT13=
PLAYORDER=
